<?xml version="1.0" encoding="UTF-8" standalone="no" ?>
<svg class="print-risk-table" id="risk-table" width="250" height="250">
    <g>
        <g>
            <rect x="0" y="200" width="50" height="50" fill="#81B014" stroke="rgb(0,0,0)" stroke-width="1"></rect>
        </g>
        <g>
            <rect x="50" y="200" width="50" height="50" fill="#81B014" stroke="rgb(0,0,0)" stroke-width="1"></rect>
        </g>
        <g>
            <rect x="100" y="200" width="50" height="50" fill="#008001" stroke="rgb(0,0,0)" stroke-width="1"></rect>
        </g>
        <g>
            <rect x="150" y="200" width="50" height="50" fill="#FFFF00" stroke="rgb(0,0,0)" stroke-width="1"></rect>
        </g>
        <g>
            <rect x="200" y="200" width="50" height="50" fill="#FF6400" stroke="rgb(0,0,0)" stroke-width="1"></rect>
        </g>
        <g>
            <rect x="0" y="150" width="50" height="50" fill="#6FA529" stroke="rgb(0,0,0)" stroke-width="1"></rect>
        </g>
        <g>
            <rect x="50" y="150" width="50" height="50" fill="#008001" stroke="rgb(0,0,0)" stroke-width="1"></rect>
        </g>
        <g>
            <rect x="100" y="150" width="50" height="50" fill="#FFFF00" stroke="rgb(0,0,0)" stroke-width="1"></rect>
        </g>
        <g>
            <rect x="150" y="150" width="50" height="50" fill="#FF6400" stroke="rgb(0,0,0)" stroke-width="1"></rect>
        </g>
        <g>
            <rect x="200" y="150" width="50" height="50" fill="#FF6400" stroke="rgb(0,0,0)" stroke-width="1"></rect>
        </g>
        <g>
            <rect x="0" y="100" width="50" height="50" fill="#008001" stroke="rgb(0,0,0)" stroke-width="1"></rect>
        </g>
        <g>
            <rect x="50" y="100" width="50" height="50" fill="#FFFF00" stroke="rgb(0,0,0)" stroke-width="1"></rect>
        </g>
        <g>
            <rect x="100" y="100" width="50" height="50" fill="#FFFF00" stroke="rgb(0,0,0)" stroke-width="1"></rect>
        </g>
        <g>
            <rect x="150" y="100" width="50" height="50" fill="#FF6400" stroke="rgb(0,0,0)" stroke-width="1"></rect>
        </g>
        <g>
            <rect x="200" y="100" width="50" height="50" fill="#FE0000" stroke="rgb(0,0,0)" stroke-width="1"></rect>
        </g>
        <g>
            <rect x="0" y="50" width="50" height="50" fill="#FFFF00" stroke="rgb(0,0,0)" stroke-width="1"></rect>
        </g>
        <g>
            <rect x="50" y="50" width="50" height="50" fill="#FF6400" stroke="rgb(0,0,0)" stroke-width="1"></rect>
        </g>
        <g>
            <rect x="100" y="50" width="50" height="50" fill="#FF6400" stroke="rgb(0,0,0)" stroke-width="1"></rect>
        </g>
        <g>
            <rect x="150" y="50" width="50" height="50" fill="#FE0000" stroke="rgb(0,0,0)" stroke-width="1"></rect>
        </g>
        <g>
            <rect x="200" y="50" width="50" height="50" fill="#FE0000" stroke="rgb(0,0,0)" stroke-width="1"></rect>
        </g>
        <g>
            <rect x="0" y="0" width="50" height="50" fill="#FF6400" stroke="rgb(0,0,0)" stroke-width="1"></rect>
        </g>
        <g>
            <rect x="50" y="0" width="50" height="50" fill="#FF6400" stroke="rgb(0,0,0)" stroke-width="1"></rect>
        </g>
        <g>
            <rect x="100" y="0" width="50" height="50" fill="#FE0000" stroke="rgb(0,0,0)" stroke-width="1"></rect>
        </g>
        <g>
            <rect x="150" y="0" width="50" height="50" fill="#FE0000" stroke="rgb(0,0,0)" stroke-width="1"></rect>
        </g>
        <g>
            <rect x="200" y="0" width="50" height="50" fill="#FE0000" stroke="rgb(0,0,0)" stroke-width="1"></rect>
        </g>
    </g>
</svg>