<?xml version="1.0" encoding="utf-8"?>
<svg version="1.1" xmlns:xlink="http://www.w3.org/1999/xlink" width="25px" height="20px" xmlns="http://www.w3.org/2000/svg">
  <g transform="matrix(1 0 0 1 -1885 -28 )">
    <path d="M 10.172193877551 18.2890625  C 10.1615646258503 18.3463541666667  10.172193877551 18.4166666666667  10.2040816326531 18.5  C 10.2040816326531 18.5416666666667  10.2093962585034 18.6458333333333  10.2200255102041 18.8125  C 10.2306547619048 18.9791666666667  10.2333120748299 19.1171875  10.2279974489796 19.2265625  C 10.2226828231293 19.3359375  10.2067389455782 19.4583333333333  10.1801658163265 19.59375  C 10.1535926870748 19.7291666666667  10.1004464285714 19.8307291666667  10.0207270408163 19.8984375  C 9.94100765306123 19.9661458333333  9.83205782312925 20  9.69387755102041 20  L 4.59183673469388 20  C 3.32695578231293 20  2.24542942176871 19.5598958333333  1.34725765306122 18.6796875  C 0.449085884353741 17.7994791666667  0 16.7395833333333  0 15.5  L 0 4.5  C 0 3.26041666666666  0.449085884353741 2.20052083333333  1.34725765306122 1.3203125  C 2.24542942176871 0.440104166666664  3.32695578231293 0  4.59183673469388 0  L 9.69387755102041 0  C 9.83205782312925 0  9.95163690476191 0.0494791666666639  10.0526147959184 0.1484375  C 10.1535926870748 0.247395833333333  10.2040816326531 0.364583333333333  10.2040816326531 0.5  C 10.2040816326531 0.541666666666665  10.2093962585034 0.645833333333332  10.2200255102041 0.8125  C 10.2306547619048 0.979166666666664  10.2333120748299 1.1171875  10.2279974489796 1.2265625  C 10.2226828231293 1.3359375  10.2067389455782 1.45833333333333  10.1801658163265 1.59375  C 10.1535926870748 1.72916666666666  10.1004464285714 1.83072916666666  10.0207270408163 1.8984375  C 9.94100765306123 1.96614583333333  9.83205782312925 2  9.69387755102041 2  L 4.59183673469388 2  C 3.89030612244898 2  3.28975340136054 2.24479166666666  2.79017857142857 2.734375  C 2.2906037414966 3.22395833333333  2.04081632653061 3.8125  2 4.5  L 2 15.5  C 2.04081632653061 16.1875  2.2906037414966 16.7760416666667  2.79017857142857 17.265625  C 3.28975340136054 17.7552083333333  3.89030612244898 18  4.59183673469388 18  L 9.18367346938776 18  L 9.35905612244898 18  L 9.56632653061224 18  C 9.56632653061224 18  9.62744472789116 18.0052083333333  9.74968112244898 18.015625  C 9.8719175170068 18.0260416666667  9.93303571428571 18.0416666666667  9.93303571428571 18.0625  C 9.93303571428571 18.0833333333333  9.97555272108844 18.1119791666667  10.0605867346939 18.1484375  C 10.1456207482993 18.1848958333333  10.1828231292517 18.2317708333333  10.172193877551 18.2890625  Z M 24.6970663265306 9.296875  C 24.8990221088435 9.49479166666667  25 9.72916666666667  25 10  C 25 10.2708333333333  24.8990221088435 10.5052083333333  24.6970663265306 10.703125  L 16.0235969387755 19.203125  C 15.8216411564626 19.4010416666667  15.5824829931973 19.5  15.3061224489796 19.5  C 15.0297619047619 19.5  14.7906037414966 19.4010416666667  14.5886479591837 19.203125  C 14.3866921768707 19.0052083333333  14.2857142857143 18.7708333333333  14.2857142857143 18.5  L 14.2857142857143 14  L 7.14285714285714 14  C 6.86649659863946 14  6.62733843537415 13.9010416666667  6.42538265306122 13.703125  C 6.2234268707483 13.5052083333333  6.12244897959184 13.2708333333333  6.12244897959184 13  L 6.12244897959184 7  C 6.12244897959184 6.72916666666666  6.2234268707483 6.49479166666666  6.42538265306122 6.296875  C 6.62733843537415 6.09895833333333  6.86649659863946 6  7.14285714285714 6  L 14.2857142857143 6  L 14.2857142857143 1.5  C 14.2857142857143 1.22916666666666  14.3866921768707 0.994791666666663  14.5886479591837 0.796874999999999  C 14.7906037414966 0.598958333333333  15.0297619047619 0.5  15.3061224489796 0.5  C 15.5824829931973 0.5  15.8216411564626 0.598958333333333  16.0235969387755 0.796874999999999  L 24.6970663265306 9.296875  Z " fill-rule="nonzero" fill="#ffffff" stroke="none" transform="matrix(1 0 0 1 1885 28 )" />
  </g>
</svg>